<svg version="1.1" id="Layer_1" xmlns="http://www.w3.org/2000/svg" xmlns:xlink="http://www.w3.org/1999/xlink" x="0px" y="0px"
	 width="100%" viewBox="0 0 500 500" enable-background="new 0 0 500 500" xml:space="preserve">
<path fill="#FFFFFF" opacity="1.000000" stroke="none" 
	d="
M271.000000,501.000000 
	C180.666687,501.000000 90.833374,501.000000 1.000048,501.000000 
	C1.000032,334.333405 1.000032,167.666794 1.000016,1.000138 
	C167.666565,1.000092 334.333130,1.000092 500.999756,1.000046 
	C500.999847,167.666519 500.999847,334.333038 500.999939,500.999786 
	C424.500000,501.000000 348.000000,501.000000 271.000000,501.000000 
M128.037567,220.838531 
	C128.116791,225.127808 131.313660,230.462280 123.358322,231.833893 
	C125.375969,234.273041 126.808662,236.005035 128.699493,238.290863 
	C124.129158,239.752304 120.483795,240.917969 116.194023,242.289688 
	C115.653641,242.084991 114.336693,241.586136 113.001038,241.080185 
	C110.069412,250.470535 111.038780,261.984772 116.013527,265.560425 
	C116.382347,261.710571 116.685509,258.546021 116.988678,255.381454 
	C119.006012,256.519257 120.585457,258.161346 120.884102,260.010284 
	C121.529816,264.007965 122.766708,267.226288 126.521568,269.394440 
	C127.756271,270.107422 128.897095,272.199036 128.887466,273.652313 
	C128.827698,282.672913 130.717224,291.790436 127.713943,300.711670 
	C127.370628,301.731506 127.855896,303.310150 128.504242,304.253540 
	C128.784454,304.661255 130.460449,304.137909 131.495758,303.990723 
	C132.566483,303.838562 134.137085,303.084961 134.615448,303.531097 
	C138.670700,307.313385 145.153015,309.400879 144.058609,316.931213 
	C143.567825,320.308197 145.659561,321.101013 148.731247,320.954315 
	C151.231613,320.834961 153.758728,321.424713 156.281494,321.563232 
	C157.538666,321.632263 159.249878,321.883545 160.002335,321.210327 
	C163.037827,318.494476 166.038132,319.264191 169.257019,320.568268 
	C170.780838,321.185577 172.421738,321.770416 174.028290,321.825562 
	C174.915390,321.856018 175.841141,320.760559 176.749481,320.172668 
	C176.177567,319.299316 175.796402,318.119965 174.992462,317.618805 
	C173.498077,316.687317 171.757172,316.151276 170.511963,315.618683 
	C170.511963,312.671875 170.511963,310.260925 170.511963,307.232605 
	C174.081497,306.917358 176.887222,302.778381 181.956100,305.436035 
	C183.501831,306.246429 188.976639,303.513153 189.512039,301.547516 
	C191.018478,296.017120 193.908890,291.966156 198.010208,288.289764 
	C200.299072,286.238068 201.895294,284.635803 204.138260,288.341278 
	C204.709595,289.285156 206.820709,289.296997 208.224350,289.737061 
	C208.530441,288.480957 209.057053,287.233063 209.103928,285.967346 
	C209.294113,280.834656 207.062775,275.672516 210.378174,270.524933 
	C211.294540,269.102173 209.420624,265.884705 208.832062,263.489410 
	C208.454712,261.953796 207.507721,260.288574 207.812912,258.900635 
	C209.269806,252.274994 212.081528,245.830566 209.804214,238.839874 
	C209.547455,238.051666 208.899277,237.086395 209.140686,236.489700 
	C210.749405,232.513702 208.616714,230.435410 205.431656,229.221069 
	C206.511124,227.622787 207.352112,226.377594 209.042908,223.874130 
	C205.437271,223.874130 203.228638,223.982925 201.035492,223.845139 
	C198.585739,223.691223 195.632141,224.070206 193.838654,222.842651 
	C191.570435,221.290176 191.860901,218.626984 193.172836,215.710754 
	C193.813538,214.286621 191.902664,210.703262 190.170258,209.478912 
	C188.006210,207.949524 186.220596,209.712418 185.879883,212.432266 
	C185.812271,212.971939 185.248108,213.449402 184.594116,214.436996 
	C183.587128,213.384979 182.336166,212.696747 182.231827,211.864746 
	C181.709167,207.696808 179.505081,208.155212 176.185440,208.623596 
	C170.096085,209.482788 163.882889,209.607925 157.715546,209.719269 
	C153.718613,209.791428 149.700455,209.006882 145.712769,209.158371 
	C143.127258,209.256577 140.550720,210.956314 138.022598,210.836060 
	C135.205627,210.702072 132.448105,209.318359 128.775925,208.210495 
	C129.421906,210.132874 129.779251,211.593018 130.398575,212.931976 
	C131.068680,214.380737 131.983261,215.716431 132.661804,216.879578 
	C130.956390,218.076675 129.556870,219.059036 128.037567,220.838531 
z"/>
<path fill="#F8FBF6" opacity="1.000000" stroke="none" 
	d="
M128.097458,220.439972 
	C129.556870,219.059036 130.956390,218.076675 132.661804,216.879578 
	C131.983261,215.716431 131.068680,214.380737 130.398575,212.931976 
	C129.779251,211.593018 129.421906,210.132874 128.775925,208.210495 
	C132.448105,209.318359 135.205627,210.702072 138.022598,210.836060 
	C140.550720,210.956314 143.127258,209.256577 145.712769,209.158371 
	C149.700455,209.006882 153.718613,209.791428 157.715546,209.719269 
	C163.882889,209.607925 170.096085,209.482788 176.185440,208.623596 
	C179.505081,208.155212 181.709167,207.696808 182.231827,211.864746 
	C182.336166,212.696747 183.587128,213.384979 184.594116,214.436996 
	C185.248108,213.449402 185.812271,212.971939 185.879883,212.432266 
	C186.220596,209.712418 188.006210,207.949524 190.170258,209.478912 
	C191.902664,210.703262 193.813538,214.286621 193.172836,215.710754 
	C191.860901,218.626984 191.570435,221.290176 193.838654,222.842651 
	C195.632141,224.070206 198.585739,223.691223 201.035492,223.845139 
	C203.228638,223.982925 205.437271,223.874130 209.042908,223.874130 
	C207.352112,226.377594 206.511124,227.622787 205.431656,229.221069 
	C208.616714,230.435410 210.749405,232.513702 209.140686,236.489700 
	C208.899277,237.086395 209.547455,238.051666 209.804214,238.839874 
	C212.081528,245.830566 209.269806,252.274994 207.812912,258.900635 
	C207.507721,260.288574 208.454712,261.953796 208.832062,263.489410 
	C209.420624,265.884705 211.294540,269.102173 210.378174,270.524933 
	C207.062775,275.672516 209.294113,280.834656 209.103928,285.967346 
	C209.057053,287.233063 208.530441,288.480957 208.224350,289.737061 
	C206.820709,289.296997 204.709595,289.285156 204.138260,288.341278 
	C201.895294,284.635803 200.299072,286.238068 198.010208,288.289764 
	C193.908890,291.966156 191.018478,296.017120 189.512039,301.547516 
	C188.976639,303.513153 183.501831,306.246429 181.956100,305.436035 
	C176.887222,302.778381 174.081497,306.917358 170.511963,307.232605 
	C170.511963,310.260925 170.511963,312.671875 170.511963,315.618683 
	C171.757172,316.151276 173.498077,316.687317 174.992462,317.618805 
	C175.796402,318.119965 176.177567,319.299316 176.749481,320.172668 
	C175.841141,320.760559 174.915390,321.856018 174.028290,321.825562 
	C172.421738,321.770416 170.780838,321.185577 169.257019,320.568268 
	C166.038132,319.264191 163.037827,318.494476 160.002335,321.210327 
	C159.249878,321.883545 157.538666,321.632263 156.281494,321.563232 
	C153.758728,321.424713 151.231613,320.834961 148.731247,320.954315 
	C145.659561,321.101013 143.567825,320.308197 144.058609,316.931213 
	C145.153015,309.400879 138.670700,307.313385 134.615448,303.531097 
	C134.137085,303.084961 132.566483,303.838562 131.495758,303.990723 
	C130.460449,304.137909 128.784454,304.661255 128.504242,304.253540 
	C127.855896,303.310150 127.370628,301.731506 127.713943,300.711670 
	C130.717224,291.790436 128.827698,282.672913 128.887466,273.652313 
	C128.897095,272.199036 127.756271,270.107422 126.521568,269.394440 
	C122.766708,267.226288 121.529816,264.007965 120.884102,260.010284 
	C120.585457,258.161346 119.006012,256.519257 116.988678,255.381454 
	C116.685509,258.546021 116.382347,261.710571 116.013527,265.560425 
	C111.038780,261.984772 110.069412,250.470535 113.001038,241.080185 
	C114.336693,241.586136 115.653641,242.084991 116.194023,242.289688 
	C120.483795,240.917969 124.129158,239.752304 128.699493,238.290863 
	C126.808662,236.005035 125.375969,234.273041 123.358322,231.833893 
	C131.313660,230.462280 128.116791,225.127808 128.097458,220.439972 
M188.993790,282.997620 
	C188.993790,282.997620 188.767029,282.759766 189.476486,282.843872 
	C189.919678,282.159454 190.362869,281.475067 190.976257,281.002563 
	C190.976257,281.002563 190.812637,280.789276 191.530746,280.982330 
	C193.938721,281.626099 196.324509,282.375000 198.759872,282.888947 
	C202.395309,283.656067 206.099396,279.439789 204.986816,275.249359 
	C205.309845,273.837341 205.632874,272.425293 206.509201,270.570770 
	C207.333542,267.527130 205.277634,268.101471 203.255249,268.189758 
	C203.255249,268.189758 203.002640,267.991028 202.942276,267.276581 
	C201.304443,263.521088 199.666611,259.765625 197.980972,255.359253 
	C198.318756,254.572952 198.656540,253.786652 199.751709,253.015030 
	C202.437317,250.661758 205.708542,248.666290 207.485580,245.757874 
	C208.093826,244.762375 204.957321,241.478821 202.982574,239.039673 
	C202.319672,238.631592 201.656769,238.223511 200.804031,237.527786 
	C200.536453,237.631927 200.268875,237.736053 199.341553,237.972504 
	C198.893936,237.981308 198.446304,237.990128 197.445816,237.422455 
	C194.954010,237.289612 192.462219,237.156769 190.002060,237.002228 
	C190.002060,237.002228 189.977615,237.033325 189.936661,236.307404 
	C188.262527,233.197098 186.588394,230.086792 184.879578,226.316132 
	C184.958466,225.884369 185.037354,225.452621 185.789703,224.876862 
	C187.534576,223.145660 187.807449,221.744003 184.988693,220.993546 
	C184.988693,220.993546 184.947052,221.057953 184.986084,220.277786 
	C183.541000,215.904449 180.620895,215.613464 176.368652,217.681076 
	C175.735870,217.875549 175.103073,218.070007 173.586029,218.114700 
	C171.373398,217.748932 169.160782,217.383163 166.720444,216.363556 
	C165.151169,215.584549 163.581894,214.805527 161.558029,213.478729 
	C160.021851,213.902039 158.485687,214.325348 156.327103,214.951370 
	C155.894150,214.997055 155.461212,215.042725 154.639252,214.570816 
	C153.082397,215.328964 151.525543,216.087128 149.395065,217.244339 
	C127.917007,227.565704 124.062347,249.163666 130.919357,265.961487 
	C135.427368,277.004913 139.532715,288.233582 143.271606,299.559753 
	C144.748077,304.032440 147.099228,306.436920 151.587204,306.709595 
	C155.240417,306.931549 158.955841,307.159668 162.558090,306.705811 
	C164.091370,306.512604 165.406433,304.587494 166.820663,303.449432 
	C165.415237,302.303589 164.139526,300.451996 162.576294,300.164642 
	C159.675186,299.631348 156.556305,300.329468 153.629166,299.870392 
	C152.263733,299.656311 150.514938,298.181427 149.995575,296.862335 
	C145.740509,286.055328 142.057144,275.014099 137.544708,264.320557 
	C134.268295,256.556152 133.682755,248.965332 136.724487,240.910339 
	C137.158066,239.607666 137.591644,238.304993 138.150803,236.346664 
	C139.477859,234.586029 140.804916,232.825409 142.906525,231.039459 
	C147.807571,231.032501 150.455276,228.207062 151.949066,223.860336 
	C151.949066,223.860336 151.895554,223.885391 152.573288,223.970840 
	C153.403473,223.442169 154.233643,222.913498 155.676208,222.132248 
	C156.111389,222.065979 156.546585,221.999710 157.372818,222.518921 
	C158.521103,224.362503 160.754532,226.279541 160.635529,228.037323 
	C160.021255,237.110565 161.134659,238.436432 171.059143,237.783463 
	C172.031052,238.226334 173.002960,238.669205 174.094299,239.787186 
	C175.074860,240.181610 176.055420,240.576035 176.998627,240.998749 
	C176.998627,240.998749 177.026810,240.960724 177.073975,241.668350 
	C180.009583,246.120392 182.945206,250.572433 186.048828,255.662598 
	C186.056335,256.101440 186.063858,256.540253 185.471695,257.511658 
	C184.385468,262.468170 183.299240,267.424683 181.982773,272.990692 
	C179.809967,274.760529 177.637146,276.530396 174.592590,278.130707 
	C170.396606,279.410645 166.200607,280.690582 161.387299,282.317657 
	C160.469666,284.192596 159.552017,286.067505 158.008118,288.085175 
	C157.514038,288.798828 157.019958,289.512482 156.525894,290.226135 
	C157.732773,290.451782 158.939636,290.677460 160.711258,291.213562 
	C161.453674,291.635590 162.196075,292.057648 163.194656,293.104950 
	C166.803635,295.066559 170.412613,297.028137 174.467682,299.194061 
	C174.747009,299.394073 174.925156,299.661499 175.140854,300.762848 
	C180.994827,303.612762 187.027786,301.120117 186.962753,295.854004 
	C186.917053,292.151886 186.787247,288.450806 186.853851,284.830933 
	C186.853851,284.830933 186.733597,284.698853 187.448746,284.821808 
	C187.885864,284.136627 188.322983,283.451477 188.993790,282.997620 
M167.376984,244.481689 
	C165.218750,246.229660 163.284225,246.230103 161.249405,244.104050 
	C160.513580,243.335251 158.934143,242.619202 158.098495,242.910049 
	C157.240067,243.208832 156.252655,244.799179 156.307831,245.768173 
	C156.527283,249.621658 154.366425,250.654495 151.133743,250.945496 
	C147.292969,251.291245 146.841080,253.070572 149.443069,255.698029 
	C151.814865,258.093048 151.462738,260.181122 149.412659,262.641235 
	C147.039551,265.489014 147.829758,266.947144 151.702118,267.338226 
	C154.802292,267.651337 156.478775,269.130066 156.474213,272.426788 
	C156.472916,273.368286 157.002686,274.942230 157.603043,275.111389 
	C158.617065,275.397125 160.293381,275.191803 160.968140,274.493866 
	C163.612625,271.758606 165.800095,271.759613 168.562012,274.450195 
	C170.912827,276.740265 172.916458,275.979309 172.948425,272.572021 
	C172.981735,269.023254 174.457047,267.417023 177.984680,267.266693 
	C181.853378,267.101776 182.469345,265.151764 179.853409,262.542786 
	C177.453384,260.149139 177.400330,258.121643 179.641724,255.691956 
	C182.062729,253.067581 181.848190,251.109512 177.865616,250.891815 
	C174.634918,250.715256 173.019165,249.343613 172.906525,246.001587 
	C172.770218,241.956757 170.854782,241.542984 167.376984,244.481689 
M115.691353,245.717041 
	C115.523071,246.919785 115.354782,248.122543 115.186501,249.325287 
	C115.762856,249.329773 116.339211,249.334274 116.915565,249.338776 
	C116.617470,247.947906 116.319382,246.557053 115.691353,245.717041 
M204.202072,256.609344 
	C204.206299,256.213928 204.210526,255.818542 204.214752,255.423157 
	C204.050659,255.421646 203.743927,255.409134 203.743088,255.420212 
	C203.712738,255.813705 203.711044,256.209381 204.202072,256.609344 
M186.428604,215.702271 
	C186.702789,215.989441 186.976974,216.276627 187.251160,216.563828 
	C187.369995,216.450134 187.598419,216.243866 187.591843,216.236084 
	C187.335983,215.933182 187.058655,215.648392 186.428604,215.702271 
M132.388168,299.203583 
	C132.784668,299.207733 133.181152,299.211853 133.577652,299.216003 
	C133.579147,299.051483 133.591660,298.743958 133.580566,298.743103 
	C133.186005,298.712738 132.789230,298.711090 132.388168,299.203583 
z"/>
<path fill="#85D760" opacity="1.000000" stroke="none" 
	d="
M162.938492,292.479675 
	C162.196075,292.057648 161.453674,291.635590 160.308502,290.748901 
	C159.481964,289.503662 159.058167,288.723053 158.634384,287.942444 
	C159.552017,286.067505 160.469666,284.192596 162.125031,282.185974 
	C167.063293,280.802948 171.263809,279.551575 175.464340,278.300232 
	C177.637146,276.530396 179.809967,274.760529 182.412933,272.523438 
	C186.184937,267.515625 188.250885,262.701874 186.071381,256.979095 
	C186.063858,256.540253 186.056335,256.101440 186.017456,254.962265 
	C184.541504,248.789658 182.642929,243.623184 177.026810,240.960724 
	C177.026810,240.960724 176.998627,240.998749 176.879669,240.695801 
	C175.832108,239.965927 174.903503,239.538986 173.974884,239.112061 
	C173.002960,238.669205 172.031052,238.226334 170.451508,237.521378 
	C169.064270,236.970642 168.306625,236.559296 167.501160,236.415253 
	C164.529312,235.883743 161.993683,235.007797 161.826660,231.308777 
	C161.657974,227.573166 164.580734,227.144333 166.977448,225.612900 
	C169.862335,223.769531 172.005829,220.765839 174.470306,218.264496 
	C175.103073,218.070007 175.735870,217.875549 176.993576,217.732422 
	C180.061356,218.875168 182.504196,219.966568 184.947052,221.057953 
	C184.947052,221.057953 184.988693,220.993546 184.948654,221.418243 
	C184.977829,222.902252 185.047043,223.961563 185.116241,225.020859 
	C185.037354,225.452621 184.958466,225.884369 184.656281,226.912567 
	C183.552582,232.272263 185.992340,235.102661 189.977615,237.033325 
	C189.977615,237.033325 190.002060,237.002228 190.166260,237.338089 
	C192.886551,237.782288 195.442612,237.890610 197.998688,237.998932 
	C198.446304,237.990128 198.893936,237.981308 199.921066,237.961700 
	C200.665009,237.905716 200.829437,237.860565 200.993851,237.815430 
	C201.656769,238.223511 202.319672,238.631592 203.348450,239.527008 
	C205.813110,244.641693 205.736191,248.587601 200.446655,251.081848 
	C199.803894,251.384918 199.470871,252.344833 198.994324,253.000336 
	C198.656540,253.786652 198.318756,254.572952 197.746780,255.956757 
	C196.867996,263.684570 197.998596,266.039825 203.002640,267.991028 
	C203.002640,267.991028 203.255249,268.189758 203.543716,268.496277 
	C204.540100,269.539612 205.248016,270.276459 205.955917,271.013275 
	C205.632874,272.425293 205.309845,273.837341 204.684067,275.825134 
	C202.902939,279.350922 200.747101,280.129059 197.402390,279.535492 
	C195.344788,279.170288 193.018356,280.319824 190.812637,280.789276 
	C190.812637,280.789276 190.976257,281.002563 190.582550,280.941711 
	C189.714905,281.507141 189.240982,282.133453 188.767029,282.759766 
	C188.767029,282.759766 188.993790,282.997620 188.578812,282.939728 
	C187.687088,283.487518 187.210342,284.093170 186.733597,284.698853 
	C186.733597,284.698853 186.853851,284.830933 186.437729,284.903656 
	C185.565033,287.415222 184.398224,289.981262 184.807159,292.265137 
	C185.544266,296.381927 184.440002,298.710022 180.353806,299.447998 
	C178.594284,299.765778 176.787460,299.821533 175.002121,299.996338 
	C174.925156,299.661499 174.747009,299.394073 174.207245,298.739349 
	C171.807846,293.447296 168.124634,291.538452 162.938492,292.479675 
z"/>
<path fill="#8CD56A" opacity="1.000000" stroke="none" 
	d="
M155.028259,215.088394 
	C155.461212,215.042725 155.894150,214.997055 157.018127,214.919647 
	C159.143646,214.600784 160.578140,214.313660 162.012619,214.026520 
	C163.581894,214.805527 165.151169,215.584549 166.744919,217.039856 
	C165.402939,218.736038 164.163101,220.059692 162.636719,220.695862 
	C160.884216,221.426254 158.877853,221.547562 156.981766,221.933441 
	C156.546585,221.999710 156.111389,222.065979 155.058624,222.196671 
	C153.592545,222.802536 152.744049,223.343964 151.895569,223.885406 
	C151.895554,223.885391 151.949066,223.860336 151.563141,223.875198 
	C148.162155,226.281647 145.147079,228.673218 142.131989,231.064789 
	C140.804916,232.825409 139.477859,234.586029 137.807449,236.848694 
	C137.007385,238.572449 136.550674,239.794174 136.093964,241.015884 
	C133.682755,248.965332 134.268295,256.556152 137.544708,264.320557 
	C142.057144,275.014099 145.740509,286.055328 149.995575,296.862335 
	C150.514938,298.181427 152.263733,299.656311 153.629166,299.870392 
	C156.556305,300.329468 159.675186,299.631348 162.576294,300.164642 
	C164.139526,300.451996 165.415237,302.303589 166.820663,303.449432 
	C165.406433,304.587494 164.091370,306.512604 162.558090,306.705811 
	C158.955841,307.159668 155.240417,306.931549 151.587204,306.709595 
	C147.099228,306.436920 144.748077,304.032440 143.271606,299.559753 
	C139.532715,288.233582 135.427368,277.004913 130.919357,265.961487 
	C124.062347,249.163666 127.917007,227.565704 150.028290,217.047729 
	C152.117081,216.263535 153.572662,215.675964 155.028259,215.088394 
z"/>
<path fill="#141514" opacity="1.000000" stroke="none" 
	d="
M167.637909,244.188385 
	C170.854782,241.542984 172.770218,241.956757 172.906525,246.001587 
	C173.019165,249.343613 174.634918,250.715256 177.865616,250.891815 
	C181.848190,251.109512 182.062729,253.067581 179.641724,255.691956 
	C177.400330,258.121643 177.453384,260.149139 179.853409,262.542786 
	C182.469345,265.151764 181.853378,267.101776 177.984680,267.266693 
	C174.457047,267.417023 172.981735,269.023254 172.948425,272.572021 
	C172.916458,275.979309 170.912827,276.740265 168.562012,274.450195 
	C165.800095,271.759613 163.612625,271.758606 160.968140,274.493866 
	C160.293381,275.191803 158.617065,275.397125 157.603043,275.111389 
	C157.002686,274.942230 156.472916,273.368286 156.474213,272.426788 
	C156.478775,269.130066 154.802292,267.651337 151.702118,267.338226 
	C147.829758,266.947144 147.039551,265.489014 149.412659,262.641235 
	C151.462738,260.181122 151.814865,258.093048 149.443069,255.698029 
	C146.841080,253.070572 147.292969,251.291245 151.133743,250.945496 
	C154.366425,250.654495 156.527283,249.621658 156.307831,245.768173 
	C156.252655,244.799179 157.240067,243.208832 158.098495,242.910049 
	C158.934143,242.619202 160.513580,243.335251 161.249405,244.104050 
	C163.284225,246.230103 165.218750,246.229660 167.637909,244.188385 
M155.541611,258.647095 
	C155.576950,262.845734 157.166092,266.687012 161.316055,267.431641 
	C164.346130,267.975311 168.204193,267.073090 170.903366,265.478546 
	C174.170197,263.548615 174.422943,259.659454 173.169662,256.079712 
	C171.743591,252.006409 168.634171,249.934402 164.419464,250.052170 
	C159.449036,250.190994 156.520004,253.001297 155.541611,258.647095 
z"/>
<path fill="#E5FBDA" opacity="1.000000" stroke="none" 
	d="
M157.177292,222.226181 
	C158.877853,221.547562 160.884216,221.426254 162.636719,220.695862 
	C164.163101,220.059692 165.402939,218.736038 166.858765,217.366776 
	C169.160782,217.383163 171.373398,217.748932 174.028168,218.189606 
	C172.005829,220.765839 169.862335,223.769531 166.977448,225.612900 
	C164.580734,227.144333 161.657974,227.573166 161.826660,231.308777 
	C161.993683,235.007797 164.529312,235.883743 167.501160,236.415253 
	C168.306625,236.559296 169.064270,236.970642 170.127380,237.510773 
	C161.134659,238.436432 160.021255,237.110565 160.635529,228.037323 
	C160.754532,226.279541 158.521103,224.362503 157.177292,222.226181 
z"/>
<path fill="#E5FBDA" opacity="1.000000" stroke="none" 
	d="
M175.071487,300.379578 
	C176.787460,299.821533 178.594284,299.765778 180.353806,299.447998 
	C184.440002,298.710022 185.544266,296.381927 184.807159,292.265137 
	C184.398224,289.981262 185.565033,287.415222 186.358307,284.862823 
	C186.787247,288.450806 186.917053,292.151886 186.962753,295.854004 
	C187.027786,301.120117 180.994827,303.612762 175.071487,300.379578 
z"/>
<path fill="#E5FBDA" opacity="1.000000" stroke="none" 
	d="
M191.171692,280.885803 
	C193.018356,280.319824 195.344788,279.170288 197.402390,279.535492 
	C200.747101,280.129059 202.902939,279.350922 204.654510,276.188751 
	C206.099396,279.439789 202.395309,283.656067 198.759872,282.888947 
	C196.324509,282.375000 193.938721,281.626099 191.171692,280.885803 
z"/>
<path fill="#E5FBDA" opacity="1.000000" stroke="none" 
	d="
M199.373016,253.007690 
	C199.470871,252.344833 199.803894,251.384918 200.446655,251.081848 
	C205.736191,248.587601 205.813110,244.641693 203.623016,239.627502 
	C204.957321,241.478821 208.093826,244.762375 207.485580,245.757874 
	C205.708542,248.666290 202.437317,250.661758 199.373016,253.007690 
z"/>
<path fill="#E5FBDA" opacity="1.000000" stroke="none" 
	d="
M177.050385,241.314545 
	C182.642929,243.623184 184.541504,248.789658 185.933441,254.643204 
	C182.945206,250.572433 180.009583,246.120392 177.050385,241.314545 
z"/>
<path fill="#E5FBDA" opacity="1.000000" stroke="none" 
	d="
M185.771545,257.245361 
	C188.250885,262.701874 186.184937,267.515625 182.528046,272.218689 
	C183.299240,267.424683 184.385468,262.468170 185.771545,257.245361 
z"/>
<path fill="#E5FBDA" opacity="1.000000" stroke="none" 
	d="
M142.519257,231.052124 
	C145.147079,228.673218 148.162155,226.281647 151.531891,223.875061 
	C150.455276,228.207062 147.807571,231.032501 142.519257,231.052124 
z"/>
<path fill="#E5FBDA" opacity="1.000000" stroke="none" 
	d="
M202.972458,267.633789 
	C197.998596,266.039825 196.867996,263.684570 197.770691,256.282196 
	C199.666611,259.765625 201.304443,263.521088 202.972458,267.633789 
z"/>
<path fill="#E5FBDA" opacity="1.000000" stroke="none" 
	d="
M189.957138,236.670364 
	C185.992340,235.102661 183.552582,232.272263 184.673630,227.242767 
	C186.588394,230.086792 188.262527,233.197098 189.957138,236.670364 
z"/>
<path fill="#E5FBDA" opacity="1.000000" stroke="none" 
	d="
M163.066574,292.792297 
	C168.124634,291.538452 171.807846,293.447296 173.984192,298.637177 
	C170.412613,297.028137 166.803635,295.066559 163.066574,292.792297 
z"/>
<path fill="#E5FBDA" opacity="1.000000" stroke="none" 
	d="
M175.028473,278.215454 
	C171.263809,279.551575 167.063293,280.802948 162.433701,282.012421 
	C166.200607,280.690582 170.396606,279.410645 175.028473,278.215454 
z"/>
<path fill="#E5FBDA" opacity="1.000000" stroke="none" 
	d="
M184.966568,220.667877 
	C182.504196,219.966568 180.061356,218.875168 177.288437,217.580505 
	C180.620895,215.613464 183.541000,215.904449 184.966568,220.667877 
z"/>
<path fill="#E5FBDA" opacity="1.000000" stroke="none" 
	d="
M197.722260,237.710693 
	C195.442612,237.890610 192.886551,237.782288 190.150452,237.348938 
	C192.462219,237.156769 194.954010,237.289612 197.722260,237.710693 
z"/>
<path fill="#E5FBDA" opacity="1.000000" stroke="none" 
	d="
M161.785324,213.752625 
	C160.578140,214.313660 159.143646,214.600784 157.329346,214.818283 
	C158.485687,214.325348 160.021851,213.902039 161.785324,213.752625 
z"/>
<path fill="#FFFFFF" opacity="1.000000" stroke="none" 
	d="
M115.856323,245.441620 
	C116.319382,246.557053 116.617470,247.947906 116.915565,249.338776 
	C116.339211,249.334274 115.762856,249.329773 115.186501,249.325287 
	C115.354782,248.122543 115.523071,246.919785 115.856323,245.441620 
z"/>
<path fill="#E5FBDA" opacity="1.000000" stroke="none" 
	d="
M154.833755,214.829605 
	C153.572662,215.675964 152.117081,216.263535 150.315094,216.848206 
	C151.525543,216.087128 153.082397,215.328964 154.833755,214.829605 
z"/>
<path fill="#E5FBDA" opacity="1.000000" stroke="none" 
	d="
M158.321259,288.013794 
	C159.058167,288.723053 159.481964,289.503662 160.026123,290.593689 
	C158.939636,290.677460 157.732773,290.451782 156.525879,290.226135 
	C157.019958,289.512482 157.514038,288.798828 158.321259,288.013794 
z"/>
<path fill="#E5FBDA" opacity="1.000000" stroke="none" 
	d="
M185.452972,224.948853 
	C185.047043,223.961563 184.977829,222.902252 184.920471,221.445038 
	C187.807449,221.744003 187.534576,223.145660 185.452972,224.948853 
z"/>
<path fill="#E5FBDA" opacity="1.000000" stroke="none" 
	d="
M206.232559,270.792023 
	C205.248016,270.276459 204.540100,269.539612 203.702911,268.518250 
	C205.277634,268.101471 207.333542,267.527130 206.232559,270.792023 
z"/>
<path fill="#E5FBDA" opacity="1.000000" stroke="none" 
	d="
M136.409225,240.963104 
	C136.550674,239.794174 137.007385,238.572449 137.744659,237.176529 
	C137.591644,238.304993 137.158066,239.607666 136.409225,240.963104 
z"/>
<path fill="#E5FBDA" opacity="1.000000" stroke="none" 
	d="
M152.234436,223.928131 
	C152.744049,223.343964 153.592545,222.802536 154.752441,222.322952 
	C154.233643,222.913498 153.403473,223.442169 152.234436,223.928131 
z"/>
<path fill="#E5FBDA" opacity="1.000000" stroke="none" 
	d="
M174.034592,239.449615 
	C174.903503,239.538986 175.832108,239.965927 176.898346,240.681671 
	C176.055420,240.576035 175.074860,240.181610 174.034592,239.449615 
z"/>
<path fill="#FFFFFF" opacity="1.000000" stroke="none" 
	d="
M203.953705,256.607056 
	C203.711044,256.209381 203.712738,255.813705 203.743088,255.420212 
	C203.743927,255.409134 204.050659,255.421646 204.214752,255.423157 
	C204.210526,255.818542 204.206299,256.213928 203.953705,256.607056 
z"/>
<path fill="#FFFFFF" opacity="1.000000" stroke="none" 
	d="
M186.606384,215.531754 
	C187.058655,215.648392 187.335983,215.933182 187.591843,216.236084 
	C187.598419,216.243866 187.369995,216.450134 187.251160,216.563812 
	C186.976974,216.276627 186.702789,215.989441 186.606384,215.531754 
z"/>
<path fill="#E5FBDA" opacity="1.000000" stroke="none" 
	d="
M189.121765,282.801819 
	C189.240982,282.133453 189.714905,281.507141 190.497452,280.835754 
	C190.362869,281.475067 189.919678,282.159454 189.121765,282.801819 
z"/>
<path fill="#E5FBDA" opacity="1.000000" stroke="none" 
	d="
M187.091171,284.760315 
	C187.210342,284.093170 187.687088,283.487518 188.461960,282.824066 
	C188.322983,283.451477 187.885864,284.136627 187.091171,284.760315 
z"/>
<path fill="#FFFFFF" opacity="1.000000" stroke="none" 
	d="
M132.390472,298.954498 
	C132.789230,298.711090 133.186005,298.712738 133.580566,298.743103 
	C133.591660,298.743958 133.579147,299.051483 133.577652,299.216003 
	C133.181152,299.211853 132.784668,299.207733 132.390472,298.954498 
z"/>
<path fill="#E5FBDA" opacity="1.000000" stroke="none" 
	d="
M200.898941,237.671600 
	C200.829437,237.860565 200.665009,237.905716 200.250946,237.895538 
	C200.268875,237.736053 200.536453,237.631927 200.898941,237.671600 
z"/>
<path fill="#E4E4E4" opacity="1.000000" stroke="none" 
	d="
M155.588333,258.276550 
	C156.520004,253.001297 159.449036,250.190994 164.419464,250.052170 
	C168.634171,249.934402 171.743591,252.006409 173.169662,256.079712 
	C174.422943,259.659454 174.170197,263.548615 170.903366,265.478546 
	C168.204193,267.073090 164.346130,267.975311 161.316055,267.431641 
	C157.166092,266.687012 155.576950,262.845734 155.588333,258.276550 
M162.729294,255.028961 
	C161.465271,255.886719 160.201248,256.744476 159.284317,257.366699 
	C160.000854,259.197815 160.682007,260.938507 161.347153,262.638275 
	C163.067123,262.638275 164.998016,262.638275 166.384445,262.638275 
	C167.246262,260.632233 168.005753,258.864380 168.747711,257.137360 
	C166.854324,256.197662 164.960983,255.257980 162.729294,255.028961 
z"/>
<path fill="#141514" opacity="1.000000" stroke="none" 
	d="
M162.898468,254.673615 
	C164.960983,255.257980 166.854324,256.197662 168.747711,257.137360 
	C168.005753,258.864380 167.246262,260.632233 166.384445,262.638275 
	C164.998016,262.638275 163.067123,262.638275 161.347153,262.638275 
	C160.682007,260.938507 160.000854,259.197815 159.284317,257.366699 
	C160.201248,256.744476 161.465271,255.886719 162.898468,254.673615 
z"/>
</svg>